# xmcd
#
# Track frame offsets:
#	150
#	21595
#	35730
#	59865
#	80261
#	95485
#	113841
#	135194
#	150375
#	173974
#
# Disc length: 2677 seconds
#
# Revision: 0
# Processed by: cddbd v1.5.2PL0 Copyright (c) Steve Scherf et al.
# Submitted via: audiograbber 1.83.01
#
DISCID=800a730a
DTITLE=Bush League All Stars - Old Numbers
DYEAR=1900
DGENRE=alt. Country
TTITLE0=Downwind
TTITLE1=Flawless
TTITLE2=Through The Thick Of It
TTITLE3=Conversation With Myself
TTITLE4=Dr. Fong
TTITLE5=Pencilweight
TTITLE6=Chastitiy
TTITLE7=Liars Song
TTITLE8=Shell
TTITLE9=Insomnia
EXTD=
EXTT0=
EXTT1=
EXTT2=
EXTT3=
EXTT4=
EXTT5=
EXTT6=
EXTT7=
EXTT8=
EXTT9=
PLAYORDER=
